<?xml version="1.0" encoding="utf-8" ?>
<svg baseProfile="full" height="200" version="1.1" width="200" xmlns="http://www.w3.org/2000/svg" xmlns:ev="http://www.w3.org/2001/xml-events" xmlns:xlink="http://www.w3.org/1999/xlink"><defs /><rect fill="black" height="10" width="20" x="90" y="150" /><rect fill="black" height="100" width="10" x="95" y="50" /><rect fill="black" height="5" width="80" x="60" y="50" /><line stroke="black" stroke-width="2" x1="70" x2="60" y1="50" y2="80" /><line stroke="black" stroke-width="2" x1="130" x2="140" y1="50" y2="80" /><ellipse cx="60" cy="90" fill="black" rx="15" ry="7" /><ellipse cx="140" cy="90" fill="black" rx="15" ry="7" /><rect fill="white" height="10" width="16" x="52" y="75" /><polygon fill="white" points="54,75 54,70 58,75" /><polygon fill="white" points="58,75 58,70 62,75" /><rect fill="white" height="7" width="4" x="64" y="68" /><circle cx="140" cy="82" fill="white" r="2" /><ellipse cx="135" cy="78" fill="white" rx="3" ry="5" /><ellipse cx="145" cy="78" fill="white" rx="3" ry="5" /><rect fill="white" height="7" width="2" x="139" y="83" /></svg>